<svg width="91" height="25" viewBox="0 0 91 25" fill="none" xmlns="http://www.w3.org/2000/svg">
<path d="M0.00390854 12.4571C0.737737 12.3068 1.47254 12.1633 2.20442 12.0032C3.88607 11.6353 5.54915 11.2137 7.10377 10.4407C8.86066 9.56726 10.0401 8.18043 10.7837 6.39542C11.5654 4.51768 11.9689 2.53845 12.3598 0.555317C12.3959 0.370862 12.435 0.187383 12.5376 0C12.6588 0.602163 12.7741 1.20628 12.9021 1.80649C13.2363 3.37777 13.6174 4.93344 14.2369 6.42372C15.0811 8.45565 16.5107 9.89323 18.5431 10.7423C20.4436 11.5358 22.4467 11.9437 24.4538 12.3409C24.6365 12.377 24.8192 12.4151 25 12.5146C24.1968 12.6815 23.3907 12.8396 22.5904 13.0182C20.9762 13.3784 19.3825 13.7961 17.8913 14.5427C16.1599 15.4093 14.9873 16.7727 14.2457 18.5333C13.4337 20.4608 13.0281 22.4977 12.6295 24.5354C12.6002 24.6877 12.5679 24.839 12.478 25C12.394 24.5774 12.3129 24.1548 12.2249 23.7322C11.8644 21.995 11.4755 20.2676 10.8013 18.6153C9.94528 16.519 8.47762 15.0472 6.37776 14.1923C4.47137 13.4154 2.46824 13.0075 0.461208 12.6122C0.307797 12.582 0.15341 12.5517 0 12.5205C0.000977135 12.499 0.0029314 12.4766 0.00390854 12.4551V12.4571Z" fill="#BFDCFF"/>
<path d="M36.5931 5.608H40.9291C41.7185 5.608 42.4118 5.69333 43.0091 5.864C43.6065 6.024 44.1558 6.328 44.6571 6.776C45.7771 7.77867 46.3371 9.224 46.3371 11.112C46.3371 13.128 45.8038 14.6693 44.7371 15.736C44.2678 16.2053 43.7558 16.536 43.2011 16.728C42.6571 16.9093 41.9371 17 41.0411 17H36.5931V5.608ZM38.5771 7.304V15.32H40.9291C42.1771 15.32 43.0571 14.9573 43.5691 14.232C44.0811 13.5067 44.3371 12.4987 44.3371 11.208C44.3371 9.98133 44.0491 9.02667 43.4731 8.344C42.8971 7.65067 42.0065 7.304 40.8011 7.304H38.5771ZM55.062 14.424C54.8593 15.32 54.4167 16.0187 53.734 16.52C53.062 17.0213 52.2567 17.272 51.318 17.272C50.07 17.272 49.078 16.872 48.342 16.072C47.6167 15.2613 47.254 14.2267 47.254 12.968C47.254 11.6773 47.6273 10.6107 48.374 9.768C49.1313 8.92533 50.0913 8.504 51.254 8.504C52.4593 8.504 53.414 8.92 54.118 9.752C54.822 10.5733 55.174 11.6987 55.174 13.128V13.32H49.078C49.0993 14.152 49.3073 14.7973 49.702 15.256C50.0967 15.704 50.646 15.928 51.35 15.928C51.8513 15.928 52.2567 15.8107 52.566 15.576C52.886 15.3307 53.1367 14.9467 53.318 14.424H55.062ZM53.35 12.104C53.2967 11.4107 53.078 10.8667 52.694 10.472C52.3207 10.0667 51.8353 9.864 51.238 9.864C50.6407 9.864 50.1553 10.056 49.782 10.44C49.4193 10.824 49.1953 11.3787 49.11 12.104H53.35ZM58.0746 8.744V9.96C58.736 9 59.648 8.52 60.8106 8.52C61.7493 8.52 62.448 8.776 62.9066 9.288C63.376 9.8 63.6106 10.536 63.6106 11.496V17H61.7866V12.2C61.7866 11.8693 61.7706 11.5973 61.7386 11.384C61.7066 11.16 61.6373 10.936 61.5306 10.712C61.4346 10.488 61.2746 10.3227 61.0506 10.216C60.8266 10.0987 60.5386 10.04 60.1866 10.04C58.8426 10.04 58.1706 10.8773 58.1706 12.552V17H56.3466V8.744H58.0746ZM69.3201 8.744V10.072H67.6561V14.424C67.6561 14.68 67.6615 14.8613 67.6721 14.968C67.6828 15.064 67.7148 15.176 67.7681 15.304C67.8215 15.4213 67.9121 15.5013 68.0401 15.544C68.1788 15.5867 68.3655 15.608 68.6001 15.608C68.8988 15.608 69.1388 15.5973 69.3201 15.576V17.016C68.9575 17.0587 68.5468 17.08 68.0881 17.08C67.7681 17.08 67.4855 17.0533 67.2401 17C67.0055 16.9573 66.8081 16.904 66.6481 16.84C66.4881 16.776 66.3548 16.6693 66.2481 16.52C66.1415 16.36 66.0561 16.232 65.9921 16.136C65.9388 16.0293 65.8961 15.848 65.8641 15.592C65.8428 15.336 65.8321 15.144 65.8321 15.016C65.8321 14.8773 65.8321 14.6427 65.8321 14.312C65.8321 14.2693 65.8321 14.2373 65.8321 14.216C65.8321 14.184 65.8321 14.152 65.8321 14.12C65.8321 14.0773 65.8321 14.04 65.8321 14.008V10.072H64.4561V8.744H65.8321V6.264H67.6561V8.744H69.3201ZM72.2583 5.56V7.352H70.4343V5.56H72.2583ZM72.2583 8.744V17H70.4343V8.744H72.2583ZM81.5036 13.88C81.3756 14.8933 80.9703 15.704 80.2876 16.312C79.605 16.9093 78.7463 17.208 77.7116 17.208C76.4743 17.208 75.4876 16.8187 74.7516 16.04C74.0156 15.2507 73.6476 14.2213 73.6476 12.952C73.6476 11.5867 74.0156 10.504 74.7516 9.704C75.4983 8.89333 76.501 8.488 77.7596 8.488C78.8156 8.488 79.6636 8.75467 80.3036 9.288C80.9543 9.82133 81.333 10.5627 81.4396 11.512H79.6316C79.525 10.9893 79.3116 10.5893 78.9916 10.312C78.6716 10.0347 78.2663 9.896 77.7756 9.896C77.0716 9.896 76.517 10.1627 76.1116 10.696C75.7063 11.2187 75.5036 11.9387 75.5036 12.856C75.5036 13.7733 75.6956 14.488 76.0796 15C76.4743 15.512 77.0183 15.768 77.7116 15.768C78.2556 15.768 78.6983 15.608 79.0396 15.288C79.3916 14.9573 79.6156 14.488 79.7116 13.88H81.5036ZM82.5962 11.288C82.7882 9.42133 83.9936 8.488 86.2122 8.488C87.2469 8.488 88.0682 8.69067 88.6762 9.096C89.2949 9.50133 89.6042 10.1307 89.6042 10.984V15.176C89.6042 15.4107 89.6309 15.5707 89.6842 15.656C89.7482 15.7413 89.8656 15.784 90.0362 15.784C90.1642 15.784 90.3029 15.7733 90.4522 15.752V17.032C89.9829 17.1493 89.5882 17.208 89.2682 17.208C88.4896 17.208 88.0416 16.8773 87.9242 16.216C87.2309 16.8773 86.2656 17.208 85.0282 17.208C84.1749 17.208 83.4976 16.9893 82.9962 16.552C82.4949 16.104 82.2442 15.5013 82.2442 14.744C82.2442 14.5093 82.2709 14.2907 82.3242 14.088C82.3776 13.8853 82.4362 13.7093 82.5002 13.56C82.5749 13.4107 82.6869 13.272 82.8362 13.144C82.9962 13.016 83.1242 12.9093 83.2202 12.824C83.3269 12.7387 83.4922 12.6587 83.7162 12.584C83.9509 12.5093 84.1216 12.456 84.2282 12.424C84.3456 12.3813 84.5429 12.3387 84.8202 12.296C85.0976 12.2533 85.2789 12.2267 85.3642 12.216C85.4602 12.1947 85.6522 12.168 85.9402 12.136C86.5909 12.0507 87.0336 11.9813 87.2682 11.928C87.5029 11.864 87.6629 11.7733 87.7482 11.656C87.8229 11.5707 87.8602 11.3733 87.8602 11.064C87.8602 10.232 87.2949 9.816 86.1642 9.816C85.5669 9.816 85.1296 9.928 84.8522 10.152C84.5749 10.376 84.3989 10.7547 84.3242 11.288H82.5962ZM87.8442 12.856C87.7056 12.9307 87.5456 13 87.3642 13.064C87.1829 13.1173 87.0336 13.1547 86.9162 13.176C86.8096 13.1867 86.6336 13.208 86.3882 13.24C86.1536 13.272 85.9989 13.2933 85.9242 13.304C85.7002 13.336 85.5242 13.368 85.3962 13.4C85.2682 13.4213 85.1082 13.464 84.9162 13.528C84.7349 13.592 84.5909 13.672 84.4842 13.768C84.3882 13.8533 84.3029 13.976 84.2282 14.136C84.1536 14.2853 84.1162 14.4667 84.1162 14.68C84.1162 15.0747 84.2442 15.3787 84.5002 15.592C84.7669 15.8053 85.1349 15.912 85.6042 15.912C86.4149 15.912 87.0389 15.6933 87.4762 15.256C87.7216 15.0107 87.8442 14.536 87.8442 13.832V12.856Z" fill="#EAEFF5"/>
</svg>
